Plot-
A romantic comedy about a family traveling to the French capital for business. The party includes a young engaged couple forced to confront the illusion that a life different from their own is better.

PG-13 - Comedy | Fantasy | Romance


IMDB link- 
 
http://www.imdb.com/title/tt1605783/

RATING- 8.0

INFO-

General
Complete name                    : Midnight In Paris 2011 480p BDrip x246 300MB - cRcWoRLd
Format                           : MPEG-4
Format profile                   : Base Media / Version 2
Codec ID                         : mp42
File size                        : 317 MiB
Duration                         : 1h 33mn
Overall bit rate mode            : Variable
Overall bit rate                 : 472 Kbps
Encoded date                     : UTC 2011-10-25 06:15:17

Video
ID                               : 1
Format                           : AVC
Format/Info                      : Advanced Video Codec
Format profile                   : Main@L3.0
Format settings, CABAC           : Yes
Format settings, ReFrames        : 4 frames
Codec ID                         : avc1
Codec ID/Info                    : Advanced Video Coding
Duration                         : 1h 33mn
Bit rate mode                    : Variable
Bit rate                         : 404 Kbps
Width                            : 704 pixels
Height                           : 384 pixels
Display aspect ratio             : 16:9
Frame rate mode                  : Variable
Frame rate                       : 23.976 fps
Minimum frame rate               : 7.992 fps
Maximum frame rate               : 23.981 fps
Color space                      : YUV
Chroma subsampling               : 4:2:0
Bit depth                        : 8 bits
Scan type                        : Progressive
Bits/(Pixel*Frame)               : 0.062
Stream size                      : 272 MiB (86%)
Writing library                  : x264

Audio
ID                               : 2
Format                           : AAC
Format/Info                      : Advanced Audio Codec
Format profile                   : LC
Codec ID                         : 40
Duration                         : 1h 33mn
Bit rate mode                    : Variable
Bit rate                         : 64.0 Kbps
Maximum bit rate                 : 129 Kbps
Channel(s)                       : 2 channels
Channel positions                : Front: L R
Sampling rate                    : 22.05 KHz
Compression mode                 : Lossy
Stream size                      : 43.0 MiB (14%)

Subtitles                        : English

Sample                           : Included

Try the SAMPLE 1st.

screen- 
http://img810.imageshack.us/img810/6008/vlcsnap2011102513h16m28.png 
http://img89.imageshack.us/img89/3640/vlcsnap2011102513h17m05.png 
http://img534.imageshack.us/img534/8118/vlcsnap2011102513h16m41.png

All My 200MB Rips Are Uploaded for Promotional Purposes Only! If You Like It - Buy It!

BEST For SMARTPHONES/IPAD/IPHONE/ANDROID Devices. For PC Use in VLC & MPC.

The Quality of this movies according to the rip size. plz leave your feed-back at my FB page... I am alwayes there.

NEW Rips will Come SOOOOON.

MY FB PAGE-
 
http://fb.me/CRCWORLDtorrents